<svg class="boat" version="1.1" id="Layer_1" xmlns="http://www.w3.org/2000/svg" xmlns:xlink="http://www.w3.org/1999/xlink" x="0px" y="0px"
     viewBox="0 0 331.7 178" style="enable-background:new 0 0 331.7 178;" xml:space="preserve">
    <style type="text/css">
        .st0{fill:#FFFFFF;stroke:#000000;stroke-miterlimit:10;}
    </style>
    <path class="st0" d="M227.8,83.8H70.1H23.3v46.8v0c0,25.9,21,46.8,46.8,46.8h157.7c25.9,0,52.9,0,83.8-46.8
        c14.7-22.2,19.4-46.8,19.4-46.8H227.8z"/>
    <rect x="117.1" y="15.5" class="st0" width="142" height="68.3"/>
    <rect x="214.6" y="22.5" class="st0" width="44.6" height="54.4"/>
    <rect x="117.1" y="22.5" class="st0" width="44.6" height="54.4"/>
    <rect x="170.1" y="22.5" class="st0" width="37.3" height="54.4"/>
    <rect x="32.9" y="39.6" class="st0" width="7.2" height="44.1"/>
    <rect x="112.5" y="0.5" class="st0" width="151.3" height="15"/>
    <rect x="0.5" y="39.6" class="st0" width="29.4" height="29.4"/>
    <rect x="29.9" y="44.8" class="st0" width="5.7" height="2.1"/>
    <rect x="29.9" y="62.8" class="st0" width="5.7" height="2.1"/>
    <g class='panels'>
        <path class="st0" d="M25.4,144.7c0.1,0.3,0.2,0.7,0.3,1h274.7c0.3-0.3,0.6-0.7,0.9-1H25.4z"/>
        <path class="st0" d="M41.6,167.8c0.4,0.3,0.9,0.7,1.4,1h230.8c0.6-0.3,1.2-0.7,1.8-1H41.6z"/>
        <path class="st0" d="M23.3,98.8v1h303.3c0.1-0.3,0.2-0.6,0.3-1H23.3z"/>
        <path class="st0" d="M23.3,121.8v1h293.2c0.2-0.3,0.4-0.6,0.5-1H23.3z"/>
    </g>
</svg>
